:FULLY-SPECIFIED
:FORCE-ALL-JOINTS-BE-3DOF
:DEGREES
1
root 7.46593 15.9937 -36.7321 7.11356 1.31487 -3.66776
lfemur -40.6897 6.42258 -16.3516
ltibia 43.9106 0 0
lfoot -14.6186 8.34667 0
ltoes -11.8487 0 0
rfemur -9.89801 4.72659 30.1099
rtibia 24.1198 0 0
rfoot 0 0 0
rtoes 0 0 0
lowerback -4.29912 0.189404 0.939401
upperback -1.51886 0.185188 2.55702
thorax 0.845091 0.0960327 2.10705
lowerneck -18.6579 -5.17414 -13.3376
upperneck 13.6797 -6.63107 16.9236
head 8.38994 -2.28192 7.17028
lclavicle 6.33626e-15 1.59028e-14 0
lhumerus -35.9267 -2.97855 86.2544
lradius 27.4056 0 0
lwrist 7.30557 0 0
lhand -13.3003 -23.0211 0
lfingers 7.12502 0 0
lthumb 12.8038 6.56624 0
rclavicle 6.33626e-15 1.59028e-14 0
rhumerus -38.7688 17.4551 -84.1031
rradius 56.1989 0 0
rwrist -28.5696 0 0
rhand -33.2015 -25.7513 0
rfingers 7.12502 0 0
rthumb -6.4087 -55.6344 0
2
root 7.48607 15.9858 -36.5835 7.12248 1.18088 -3.70717
lfemur -40.7386 6.4583 -16.303
ltibia 43.8066 0 0
lfoot -14.4113 8.32932 0
ltoes -11.7446 0 0
rfemur -9.44162 4.74546 30.0791
rtibia 23.7867 0 0
rfoot -0.0286453 0.0164286 0
rtoes -0.379709 0 0
lowerback -4.35742 0.203792 0.962608
upperback -1.51481 0.199707 2.57687
thorax 0.881341 0.103295 2.11684
lowerneck -18.6906 -5.16798 -13.3268
upperneck 13.7068 -6.61927 16.8954
head 8.40136 -2.2769 7.16076
lclavicle 5.83962e-15 1.50405e-14 0
lhumerus -36.04 -3.02941 86.3285
lradius 27.3491 0 0
lwrist 7.20655 0 0
lhand -13.0338 -22.9462 0
lfingers 7.12502 0 0
lthumb 13.0594 6.60938 0
rclavicle 5.83962e-15 1.50405e-14 0
rhumerus -38.8614 17.488 -84.2322
rradius 56.2023 0 0
rwrist -28.5481 0 0
rhand -33.1708 -25.8695 0
rfingers 7.12502 0 0
rthumb -6.37905 -55.7534 0
3
root 7.50621 15.9779 -36.4349 7.13442 1.02876 -3.75632
lfemur -40.8084 6.5019 -16.2407
ltibia 43.6933 0 0
lfoot -14.1688 8.30857 0
ltoes -11.6285 0 0
rfemur -8.9015 4.76931 30.049
rtibia 23.3788 0 0
rfoot -0.0535315 0.0419503 0
rtoes -0.817863 0 0
lowerback -4.42516 0.221306 0.992158
upperback -1.5101 0.217499 2.60006
thorax 0.923395 0.112199 2.12694
lowerneck -18.7269 -5.16139 -13.3149
upperneck 13.7354 -6.60653 16.865
head 8.4136 -2.27139 7.15043
lclavicle 5.27266e-15 1.40395e-14 0
lhumerus -36.177 -3.08378 86.4147
lradius 27.2833 0 0
lwrist 7.09356 0 0
lhand -12.7242 -22.8587 0
lfingers 7.12502 0 0
lthumb 13.3565 6.65987 0
rclavicle 5.27266e-15 1.40395e-14 0
rhumerus -38.9671 17.5282 -84.3805
rradius 56.2144 0 0
rwrist -28.5264 0 0
rhand -33.1362 -26.0089 0
rfingers 7.12502 0 0
rthumb -6.34563 -55.8936 0
4
root 7.52634 15.97 -36.2864 7.14916 0.859444 -3.81457
lfemur -40.8976 6.55289 -16.1656
ltibia 43.5712 0 0
lfoot -13.893 8.28464 0
ltoes -11.5009 0 0
rfemur -8.28267 4.7978 30.0196
rtibia 22.9008 0 0
rfoot -0.0750734 0.0758922 0
rtoes -1.31119 0 0
lowerback -4.5018 0.241747 1.02763
upperback -1.50474 0.238354 2.62639
thorax 0.970923 0.12264 2.13737
lowerneck -18.7667 -5.15436 -13.3022
upperneck 13.7656 -6.59287 16.8324
head 8.42663 -2.26542 7.13934
lclavicle 4.63915e-15 1.29077e-14 0
lhumerus -36.3362 -3.14158 86.5122
lradius 27.2088 0 0
lwrist 6.96734 0 0
lhand -12.3738 -22.7594 0
lfingers 7.12502 0 0
lthumb 13.6926 6.71729 0
rclavicle 4.63915e-15 1.29077e-14 0
rhumerus -39.0851 17.5754 -84.547
rradius 56.2346 0 0
rwrist -28.5045 0 0
rhand -33.0978 -26.1683 0
rfingers 7.12502 0 0
rthumb -6.30862 -56.0538 0
5
root 7.54648 15.962 -36.1378 7.16649 0.673896 -3.88128
lfemur -41.0048 6.61076 -16.0787
ltibia 43.4406 0 0
lfoot -13.586 8.25774 0
ltoes -11.3625 0 0
rfemur -7.59016 4.8306 29.9907
rtibia 22.3577 0 0
rfoot -0.0936859 0.117581 0
rtoes -1.85643 0 0
lowerback -4.58681 0.264919 1.06859
upperback -1.49879 0.262062 2.65568
thorax 1.0236 0.134514 2.14813
lowerneck -18.8098 -5.14693 -13.2885
upperneck 13.7972 -6.57833 16.7977
head 8.44044 -2.259 7.1275
lclavicle 3.94289e-15 1.16529e-14 0
lhumerus -36.5161 -3.20272 86.6203
lradius 27.1261 0 0
lwrist 6.82866 0 0
lhand -11.9851 -22.6489 0
lfingers 7.12502 0 0
lthumb 14.0654 6.7812 0
rclavicle 3.94289e-15 1.16529e-14 0
rhumerus -39.2147 17.629 -84.7307
rradius 56.262 0 0
rwrist -28.4822 0 0
rhand -33.056 -26.3462 0
rfingers 7.12502 0 0
rthumb -6.26823 -56.2328 0
6
root 7.56662 15.9541 -35.9892 7.18621 0.473066 -3.95581
lfemur -41.1283 6.67501 -15.9808
ltibia 43.3019 0 0
lfoot -13.25 8.22807 0
ltoes -11.2137 0 0
rfemur -6.82898 4.8674 29.962
rtibia 21.754 0 0
rfoot -0.109784 0.166344 0
rtoes -2.45031 0 0
lowerback -4.67964 0.290623 1.11462
upperback -1.49229 0.288417 2.68772
thorax 1.08108 0.147714 2.15925
lowerneck -18.8561 -5.13909 -13.2739
upperneck 13.8302 -6.56293 16.761
head 8.45499 -2.25216 7.11494
lclavicle 3.18763e-15 1.02832e-14 0
lhumerus -36.7152 -3.26711 86.7384
lradius 27.0357 0 0
lwrist 6.67826 0 0
lhand -11.5606 -22.5281 0
lfingers 7.12502 0 0
lthumb 14.4726 6.85117 0
rclavicle 3.18763e-15 1.02832e-14 0
rhumerus -39.3553 17.6885 -84.9304
rradius 56.2961 0 0
rwrist -28.4596 0 0
rhand -33.0109 -26.5416 0
rfingers 7.12502 0 0
rthumb -6.22464 -56.4293 0
7
root 7.58676 15.9462 -35.8406 7.20811 0.257904 -4.03753
lfemur -41.2668 6.74514 -15.873
ltibia 43.1553 0 0
lfoot -12.8869 8.19584 0
ltoes -11.0552 0 0
rfemur -6.00416 4.90784 29.9333
rtibia 21.0947 0 0
rfoot -0.123782 0.221509 0
rtoes -3.08956 0 0
lowerback -4.77976 0.318661 1.1653
upperback -1.48527 0.317207 2.72232
thorax 1.14305 0.162136 2.17073
lowerneck -18.9053 -5.13086 -13.2585
upperneck 13.8647 -6.54671 16.7223
head 8.47027 -2.2449 7.10169
lclavicle 2.37718e-15 8.80634e-15 0
lhumerus -36.932 -3.33466 86.8658
lradius 26.9382 0 0
lwrist 6.51689 0 0
lhand -11.1027 -22.3976 0
lfingers 7.12502 0 0
lthumb 14.9118 6.92678 0
rclavicle 2.37718e-15 8.80634e-15 0
rhumerus -39.5061 17.7536 -85.1451
rradius 56.3361 0 0
rwrist -28.4365 0 0
rhand -32.9626 -26.7531 0
rfingers 7.12502 0 0
rthumb -6.17804 -56.642 0
8
root 7.60689 15.9383 -35.692 7.23197 0.0293649 -4.12581
lfemur -41.4187 6.82066 -15.756
ltibia 43.0013 0 0
lfoot -12.4988 8.16126 0
ltoes -10.8875 0 0
rfemur -5.12071 4.95161 29.9046
rtibia 20.3844 0 0
rfoot -0.136096 0.282401 0
rtoes -3.77092 0 0
lowerback -4.88662 0.348837 1.2202
upperback -1.47777 0.348225 2.75929
thorax 1.20917 0.177675 2.18259
lowerneck -18.9573 -5.12226 -13.2423
upperneck 13.9007 -6.5297 16.6817
head 8.48626 -2.23727 7.08778
lclavicle 1.5153e-15 7.23033e-15 0
lhumerus -37.1651 -3.40528 87.0017
lradius 26.8341 0 0
lwrist 6.3453 0 0
lhand -10.614 -22.2581 0
lfingers 7.12502 0 0
lthumb 15.3806 7.0076 0
rclavicle 1.5153e-15 7.23033e-15 0
rhumerus -39.6664 17.8237 -85.3738
rradius 56.3814 0 0
rwrist -28.4128 0 0
rhand -32.9114 -26.9796 0
rfingers 7.12502 0 0
rthumb -6.12863 -56.8696 0
9
root 7.62703 15.9304 -35.5434 7.25759 -0.211601 -4.22
lfemur -41.5825 6.90105 -15.6309
ltibia 42.8401 0 0
lfoot -12.0877 8.12453 0
ltoes -10.7112 0 0
rfemur -4.18365 4.99838 29.8755
rtibia 19.628 0 0
rfoot -0.147139 0.348349 0
rtoes -4.4911 0 0
lowerback -4.99969 0.380953 1.2789
upperback -1.46983 0.381261 2.79844
thorax 1.27912 0.194227 2.19484
lowerneck -19.012 -5.11328 -13.2254
upperneck 13.938 -6.51192 16.6394
head 8.50293 -2.22927 7.07324
lclavicle 6.05774e-16 5.56303e-15 0
lhumerus -37.413 -3.47889 87.1456
lradius 26.724 0 0
lwrist 6.16423 0 0
lhand -10.097 -22.1104 0
lfingers 7.12502 0 0
lthumb 15.8765 7.0932 0
rclavicle 6.05774e-16 5.56303e-15 0
rhumerus -39.8356 17.8983 -85.6154
rradius 56.4312 0 0
rwrist -28.3886 0 0
rhand -32.8575 -27.2196 0
rfingers 7.12502 0 0
rthumb -6.07659 -57.1109 0
